<?xml version="1.0" encoding="UTF-8" standalone="no"?>
<!-- Created with Inkscape (http://www.inkscape.org/) -->

<svg
   xmlns:dc="http://purl.org/dc/elements/1.1/"
   xmlns:cc="http://creativecommons.org/ns#"
   xmlns:rdf="http://www.w3.org/1999/02/22-rdf-syntax-ns#"
   xmlns:svg="http://www.w3.org/2000/svg"
   xmlns="http://www.w3.org/2000/svg"
   xmlns:sodipodi="http://sodipodi.sourceforge.net/DTD/sodipodi-0.dtd"
   xmlns:inkscape="http://www.inkscape.org/namespaces/inkscape"
   version="1.1"
   id="svg815"
   width="472.54407"
   height="245.99045"
   viewBox="0 0 472.54407 245.99045"
   sodipodi:docname="black_no-name.svg"
   inkscape:version="0.92.4 (5da689c313, 2019-01-14)">
  <metadata
     id="metadata821">
    <rdf:RDF>
      <cc:Work
         rdf:about="">
        <dc:format>image/svg+xml</dc:format>
        <dc:type
           rdf:resource="http://purl.org/dc/dcmitype/StillImage" />
        <dc:title></dc:title>
      </cc:Work>
    </rdf:RDF>
  </metadata>
  <defs
     id="defs819" />
  <sodipodi:namedview
     pagecolor="#ffffff"
     bordercolor="#666666"
     borderopacity="1"
     objecttolerance="10"
     gridtolerance="10"
     guidetolerance="10"
     inkscape:pageopacity="0"
     inkscape:pageshadow="2"
     inkscape:window-width="1920"
     inkscape:window-height="1027"
     id="namedview817"
     showgrid="false"
     inkscape:zoom="1.72"
     inkscape:cx="290.34629"
     inkscape:cy="124.23476"
     inkscape:window-x="-8"
     inkscape:window-y="-8"
     inkscape:window-maximized="1"
     inkscape:current-layer="svg815"
     fit-margin-top="10"
     fit-margin-bottom="10"
     fit-margin-right="10"
     fit-margin-left="10" />
  <path
     style="fill:#000000"
     d="m 10,234.5445 c 0,-0.79254 0.399012,-1.68759 0.886693,-1.98899 1.10115,-0.68055 3.342296,1.86765 2.437964,2.77198 C 12.134889,236.51726 10,236.01447 10,234.5445 Z m 449,0 c 0,-0.79254 0.39901,-1.68759 0.88669,-1.98899 1.10115,-0.68055 3.3423,1.86765 2.43797,2.77198 C 461.13489,236.51726 459,236.01447 459,234.5445 Z M 15.446149,229.89835 c -1.030521,-1.66742 1.287209,-3.57951 2.666719,-2.2 1.153924,1.15392 0.431721,3.28713 -1.112868,3.28713 -0.485081,0 -1.184314,-0.48921 -1.553851,-1.08713 z m 438.000001,0 c -1.03052,-1.66742 1.28721,-3.57951 2.66672,-2.2 1.15392,1.15392 0.43172,3.28713 -1.11287,3.28713 -0.48508,0 -1.18431,-0.48921 -1.55385,-1.08713 z M 21.121983,224.63246 c -1.215559,-1.46466 -0.525597,-2.64698 1.544684,-2.64698 1.489699,0 1.82538,2.57786 0.44664,3.42997 -0.487681,0.30141 -1.383777,-0.0509 -1.991324,-0.78299 z m 427.565517,0.70719 c -1.37384,-1.37385 -0.66124,-3.49576 1.0625,-3.1638 0.9625,0.18536 1.75,0.96836 1.75,1.73999 0,1.57886 -1.76429,2.47201 -2.8125,1.42381 z M 26,218.5445 c 0,-0.79254 0.399012,-1.68759 0.886693,-1.98899 1.10115,-0.68055 3.342296,1.86765 2.437964,2.77198 C 28.134889,220.51726 26,220.01447 26,218.5445 Z m 417,0 c 0,-0.79254 0.39901,-1.68759 0.88669,-1.98899 1.10115,-0.68055 3.3423,1.86765 2.43797,2.77198 C 445.13489,220.51726 443,220.01447 443,218.5445 Z M 31.446149,213.89835 c -1.030521,-1.66742 1.287209,-3.57951 2.666719,-2.2 1.153924,1.15392 0.431721,3.28713 -1.112868,3.28713 -0.485081,0 -1.184314,-0.48921 -1.553851,-1.08713 z m 406.000001,0 c -1.03052,-1.66742 1.28721,-3.57951 2.66672,-2.2 1.15392,1.15392 0.43172,3.28713 -1.11287,3.28713 -0.48508,0 -1.18431,-0.48921 -1.55385,-1.08713 z M 37.121983,208.63246 c -1.215559,-1.46466 -0.525597,-2.64698 1.544684,-2.64698 1.489699,0 1.82538,2.57786 0.44664,3.42997 -0.487681,0.30141 -1.383777,-0.0509 -1.991324,-0.78299 z m 395.565517,0.70719 c -1.37384,-1.37385 -0.66124,-3.49576 1.0625,-3.1638 0.9625,0.18536 1.75,0.96836 1.75,1.73999 0,1.57886 -1.76429,2.47201 -2.8125,1.42381 z M 42.172882,202.32629 C 42.594332,200.13788 45.5,199.82828 45.5,201.97178 c 0,0.81747 -0.828366,1.64584 -1.840813,1.84082 -1.336396,0.25736 -1.743671,-0.14991 -1.486305,-1.48631 z m 385.003798,0.10637 c 0.45227,-2.17211 2.22702,-2.30502 2.63295,-0.19718 0.2108,1.0946 -0.27967,1.75 -1.30963,1.75 -0.96073,0 -1.51197,-0.64684 -1.32332,-1.55282 z M 47.446149,197.89835 c -1.030521,-1.66742 1.287209,-3.57951 2.666719,-2.2 1.153924,1.15392 0.431721,3.28713 -1.112868,3.28713 -0.485081,0 -1.184314,-0.48921 -1.553851,-1.08713 z m 374.000001,0 c -1.03052,-1.66742 1.28721,-3.57951 2.66672,-2.2 1.15392,1.15392 0.43172,3.28713 -1.11287,3.28713 -0.48508,0 -1.18431,-0.48921 -1.55385,-1.08713 z M 53.121983,192.63246 c -1.215559,-1.46466 -0.525597,-2.64698 1.544684,-2.64698 1.489699,0 1.82538,2.57786 0.44664,3.42997 -0.487681,0.30141 -1.383777,-0.0509 -1.991324,-0.78299 z m 363.216627,-0.20697 c -0.75083,-1.95661 0.15198,-2.84947 2.11826,-2.09493 1.97817,0.75909 1.9808,2.27299 0.005,3.03107 -0.88556,0.33982 -1.78628,-0.0573 -2.12354,-0.93614 z M 58.172882,186.32629 C 58.594332,184.13788 61.5,183.82828 61.5,185.97178 c 0,0.81747 -0.828366,1.64584 -1.840813,1.84082 -1.336396,0.25736 -1.743671,-0.14991 -1.486305,-1.48631 z m 353.003798,0.10637 c 0.45227,-2.17211 2.22702,-2.30502 2.63295,-0.19718 0.2108,1.0946 -0.27967,1.75 -1.30963,1.75 -0.96073,0 -1.51197,-0.64684 -1.32332,-1.55282 z M 63.446149,181.89835 c -1.030521,-1.66742 1.287209,-3.57951 2.666719,-2.2 1.153924,1.15392 0.431721,3.28713 -1.112868,3.28713 -0.485081,0 -1.184314,-0.48921 -1.553851,-1.08713 z m 342.000001,0 c -1.03052,-1.66742 1.28721,-3.57951 2.66672,-2.2 1.15392,1.15392 0.43172,3.28713 -1.11287,3.28713 -0.48508,0 -1.18431,-0.48921 -1.55385,-1.08713 z M 69.63948,177.29163 c -1.195156,-1.19516 -0.64571,-3.30615 0.86052,-3.30615 0.825,0 1.5,0.64844 1.5,1.44098 0,1.67065 -1.427277,2.79841 -2.36052,1.86517 z m 330.69913,-0.86614 c -0.75083,-1.95661 0.15198,-2.84947 2.11826,-2.09493 1.97817,0.75909 1.9808,2.27299 0.005,3.03107 -0.88556,0.33982 -1.78628,-0.0573 -2.12354,-0.93614 z M 74.172882,170.32629 C 74.594332,168.13788 77.5,167.82828 77.5,169.97178 c 0,0.81747 -0.828366,1.64584 -1.840813,1.84082 -1.336396,0.25736 -1.743671,-0.14991 -1.486305,-1.48631 z m 321.003798,0.10637 c 0.45227,-2.17211 2.22702,-2.30502 2.63295,-0.19718 0.2108,1.0946 -0.27967,1.75 -1.30963,1.75 -0.96073,0 -1.51197,-0.64684 -1.32332,-1.55282 z M 79.446149,165.89835 c -1.030521,-1.66742 1.287209,-3.57951 2.666719,-2.2 1.153924,1.15392 0.431721,3.28713 -1.112868,3.28713 -0.485081,0 -1.184314,-0.48921 -1.553851,-1.08713 z m 310.000001,0 c -1.03052,-1.66742 1.28721,-3.57951 2.66672,-2.2 1.15392,1.15392 0.43172,3.28713 -1.11287,3.28713 -0.48508,0 -1.18431,-0.48921 -1.55385,-1.08713 z M 85.63948,161.29163 c -1.19516,-1.19516 -0.64571,-3.30615 0.86052,-3.30615 0.825,0 1.5,0.64844 1.5,1.44098 0,1.67065 -1.42728,2.79841 -2.36052,1.86517 z m 298.69913,-0.86614 c -0.75083,-1.95661 0.15198,-2.84947 2.11826,-2.09493 1.97817,0.75909 1.9808,2.27299 0.005,3.03107 -0.88556,0.33982 -1.78628,-0.0573 -2.12354,-0.93614 z m -294.16573,-6.0992 c 0.19498,-1.01244 1.02335,-1.84081 1.84082,-1.84081 2.1435,0 1.8339,2.90567 -0.35451,3.32712 -1.3364,0.25736 -1.74367,-0.14991 -1.48631,-1.48631 z m 289.0038,0.10637 c 0.45227,-2.17211 2.22702,-2.30502 2.63295,-0.19718 0.2108,1.0946 -0.27967,1.75 -1.30963,1.75 -0.96073,0 -1.51197,-0.64684 -1.32332,-1.55282 z M 95.44615,149.89835 c -1.03052,-1.66742 1.28721,-3.57951 2.66672,-2.2 1.15392,1.15392 0.43172,3.28713 -1.11287,3.28713 -0.48508,0 -1.18431,-0.48921 -1.55385,-1.08713 z m 278,0 c -1.03052,-1.66742 1.28721,-3.57951 2.66672,-2.2 1.15392,1.15392 0.43172,3.28713 -1.11287,3.28713 -0.48508,0 -1.18431,-0.48921 -1.55385,-1.08713 z m -4.78816,-4.58821 C 368.2961,144.94824 368,144.05215 368,143.31881 c 0,-1.4897 2.57786,-1.82538 3.42997,-0.44664 0.68055,1.10115 -1.86765,3.3423 -2.77198,2.43797 z M 101,143.48548 c 0,-0.825 0.675,-1.5 1.5,-1.5 0.825,0 1.5,0.675 1.5,1.5 0,0.825 -0.675,1.5 -1.5,1.5 -0.825,0 -1.5,-0.675 -1.5,-1.5 z m 5.44615,-4.58713 c -1.03052,-1.66742 1.28721,-3.57951 2.66672,-2.2 1.15392,1.15392 0.43172,3.28713 -1.11287,3.28713 -0.48508,0 -1.18431,-0.48921 -1.55385,-1.08713 z m 256.73053,-0.46569 c 0.45227,-2.17211 2.22702,-2.30502 2.63295,-0.19718 0.2108,1.0946 -0.27967,1.75 -1.30963,1.75 -0.96073,0 -1.51197,-0.64684 -1.32332,-1.55282 z m -251.73053,-4.53431 c -1.03052,-1.66742 1.28721,-3.57951 2.66672,-2.2 1.15392,1.15392 0.43172,3.28713 -1.11287,3.28713 -0.48508,0 -1.18431,-0.48921 -1.55385,-1.08713 z m 36.51707,-0.12218 c -1.35421,-0.50095 -3.50271,-1.88834 -4.77445,-3.08307 -1.95422,-1.8359 -2.27269,-3.02616 -2.05679,-7.68708 0.30545,-6.59401 -0.25382,-6.87353 -9.1782,-4.58721 -8.08366,2.07094 -8.70131,1.99128 -6.09245,-0.78572 2.68706,-2.86024 9.00538,-4.88237 14.10493,-4.51417 3.35443,0.24219 4.47558,-0.3657 10.1523,-5.50464 C 162.82307,96.113324 179.08962,90.544764 200,90.538264 c 16.06086,-0.005 22.38522,2.01628 53,16.938796 26.54434,12.93848 34.62706,15.74872 53.17804,18.48922 12.7956,1.89026 26.82514,-0.78475 34.50524,-6.57913 4.90689,-3.70208 7.03242,-3.00482 3.54448,1.16275 -4.05635,4.84674 -11.38385,7.81392 -23.33885,9.45079 -6.72465,0.92073 -9.98575,0.82562 -18.73543,-0.54641 -17.50893,-2.74557 -25.98145,-5.78794 -51.61881,-18.53561 C 220.64952,96.058854 212.2361,93.506404 196,94.374024 c -5.775,0.3086 -13.2,1.0534 -16.5,1.65511 -8.68707,1.58398 -21.66309,8.143276 -27.78751,14.046426 l -5.15506,4.96882 4.44697,2.94401 c 4.96691,3.28823 7.93994,6.68535 7.97336,9.11073 0.0266,1.92697 -4.31077,6.47868 -6.79178,7.12747 -0.96831,0.25322 -2.86856,0.0505 -4.22276,-0.45042 z m 6.02621,-4.27796 c 1.75196,-2.11098 0.72101,-3.98555 -4.12095,-7.49304 -4.60919,-3.33888 -5.82474,-2.8757 -5.85317,2.23031 -0.0294,5.27625 6.91983,8.94293 9.97412,5.26273 z m 203.45672,4.40014 c -1.03052,-1.66742 1.28721,-3.57951 2.66672,-2.2 1.15392,1.15392 0.43172,3.28713 -1.11287,3.28713 -0.48508,0 -1.18431,-0.48921 -1.55385,-1.08713 z m -4.78816,-4.58821 C 352.2961,128.94824 352,128.05215 352,127.31881 c 0,-1.4897 2.57786,-1.82538 3.42997,-0.44664 0.68055,1.10115 -1.86765,3.3423 -2.77198,2.43797 z M 117,127.48548 c 0,-0.825 0.675,-1.5 1.5,-1.5 0.825,0 1.5,0.675 1.5,1.5 0,0.825 -0.675,1.5 -1.5,1.5 -0.825,0 -1.5,-0.675 -1.5,-1.5 z m 0,-8.94098 c 0,-0.79254 0.39901,-1.68759 0.88669,-1.98899 1.10115,-0.68055 3.3423,1.86765 2.43797,2.77198 C 119.13489,120.51726 117,120.01447 117,118.5445 Z m 235,-0.059 c 0,-1.02996 0.6554,-1.52043 1.75,-1.30963 2.10784,0.40593 1.97493,2.18068 -0.19718,2.63295 C 352.64684,119.99745 352,119.44621 352,118.48548 Z m -240.55385,-4.58713 c -1.03052,-1.66742 1.28721,-3.57951 2.66672,-2.2 1.15392,1.15392 0.43172,3.28713 -1.11287,3.28713 -0.48508,0 -1.18431,-0.48921 -1.55385,-1.08713 z m 246,0 c -1.03052,-1.66742 1.28721,-3.57951 2.66672,-2.2 1.15392,1.15392 0.43172,3.28713 -1.11287,3.28713 -0.48508,0 -1.18431,-0.48921 -1.55385,-1.08713 z m -250.75865,-4.5587 c -1.37384,-1.37385 -0.66124,-3.49576 1.0625,-3.1638 0.9625,0.18536 1.75,0.96836 1.75,1.73999 0,1.57886 -1.76429,2.47201 -2.8125,1.42381 z m 256.95198,-0.048 c -1.19516,-1.19518 -0.64571,-3.30617 0.86052,-3.30617 0.825,0 1.5,0.64844 1.5,1.44098 0,1.67065 -1.42728,2.79841 -2.36052,1.86517 z M 101,102.5445 c 0,-0.79254 0.39901,-1.68759 0.88669,-1.98899 1.10115,-0.680546 3.3423,1.86765 2.43797,2.77198 C 103.13489,104.51726 101,104.01447 101,102.5445 Z m 267,0.0143 c 0,-0.92763 0.855,-1.57332 2.08333,-1.57332 2.43705,0 2.09257,2.33677 -0.4162,2.82332 C 368.68037,104.00018 368,103.49004 368,102.5588 Z M 95.44615,97.898354 c -1.03052,-1.66742 1.28721,-3.57951 2.66672,-2.2 1.15392,1.15392 0.43172,3.28713 -1.11287,3.28713 -0.48508,0 -1.18431,-0.48921 -1.55385,-1.08713 z m 278,0 c -1.03052,-1.66742 1.28721,-3.57951 2.66672,-2.2 1.15392,1.15392 0.43172,3.28713 -1.11287,3.28713 -0.48508,0 -1.18431,-0.48921 -1.55385,-1.08713 z M 90.6875,93.339654 c -1.37384,-1.37385 -0.66124,-3.49576 1.0625,-3.1638 0.9625,0.18536 1.75,0.96836 1.75,1.73999 0,1.57886 -1.76429,2.47201 -2.8125,1.42381 z m 288.95198,-0.048 c -1.19516,-1.19518 -0.64571,-3.30617 0.86052,-3.30617 0.825,0 1.5,0.64844 1.5,1.44098 0,1.67065 -1.42728,2.79841 -2.36052,1.86517 z M 85,86.544504 c 0,-0.79254 0.39901,-1.68759 0.88669,-1.98899 1.10115,-0.68055 3.3423,1.86765 2.43797,2.77198 C 87.13489,88.517264 85,88.014474 85,86.544504 Z m 299,0.0143 c 0,-0.92763 0.855,-1.57332 2.08333,-1.57332 2.43705,0 2.09257,2.33677 -0.4162,2.82332 C 384.68037,88.000184 384,87.490044 384,86.558804 Z M 79.446149,81.898354 c -1.030521,-1.66742 1.287209,-3.57951 2.666719,-2.2 1.153924,1.15392 0.431721,3.28713 -1.112868,3.28713 -0.485081,0 -1.184314,-0.48921 -1.553851,-1.08713 z m 310.000001,0 c -1.03052,-1.66742 1.28721,-3.57951 2.66672,-2.2 1.15392,1.15392 0.43172,3.28713 -1.11287,3.28713 -0.48508,0 -1.18431,-0.48921 -1.55385,-1.08713 z M 74.6875,77.339654 c -1.373842,-1.37385 -0.661238,-3.49576 1.0625,-3.1638 0.9625,0.18536 1.75,0.96836 1.75,1.73999 0,1.57886 -1.764293,2.47201 -2.8125,1.42381 z m 320.95198,-0.048 c -1.19516,-1.19518 -0.64571,-3.30617 0.86052,-3.30617 0.825,0 1.5,0.64844 1.5,1.44098 0,1.67065 -1.42728,2.79841 -2.36052,1.86517 z M 69.176676,70.432664 c 0.452271,-2.17211 2.22702,-2.30502 2.632953,-0.19718 0.210801,1.0946 -0.279671,1.75 -1.309629,1.75 -0.960727,0 -1.511966,-0.64684 -1.323324,-1.55282 z M 400,70.544504 c 0,-0.79254 0.35899,-1.66285 0.79775,-1.93402 1.27929,-0.79065 3.52519,1.04345 2.77135,2.2632 C 402.5769,72.479094 400,72.241424 400,70.544504 Z M 63.446149,65.898354 c -1.030521,-1.66742 1.287209,-3.57951 2.666719,-2.2 1.153924,1.15392 0.431721,3.28713 -1.112868,3.28713 -0.485081,0 -1.184314,-0.48921 -1.553851,-1.08713 z m 342.000001,0 c -1.03052,-1.66742 1.28721,-3.57951 2.66672,-2.2 1.15392,1.15392 0.43172,3.28713 -1.11287,3.28713 -0.48508,0 -1.18431,-0.48921 -1.55385,-1.08713 z M 58.338607,60.425494 c -0.750822,-1.95661 0.15198,-2.84947 2.118265,-2.09493 1.978164,0.75909 1.980798,2.27299 0.0053,3.03107 -0.885558,0.33982 -1.786278,-0.0572 -2.123539,-0.93614 z m 353.319383,0.88465 C 411.2961,60.948244 411,60.052154 411,59.318814 c 0,-1.4897 2.57786,-1.82538 3.42997,-0.44664 0.68055,1.10115 -1.86765,3.3423 -2.77198,2.43797 z M 53.176676,54.432664 c 0.452271,-2.17211 2.22702,-2.30502 2.632953,-0.19718 0.210801,1.0946 -0.279671,1.75 -1.309629,1.75 -0.960727,0 -1.511966,-0.64684 -1.323324,-1.55282 z M 416,54.544504 c 0,-0.79254 0.35899,-1.66285 0.79775,-1.93402 1.27929,-0.79065 3.52519,1.04345 2.77135,2.2632 C 418.5769,56.479094 416,56.241424 416,54.544504 Z M 47.446149,49.898354 c -1.030521,-1.66742 1.287209,-3.57951 2.666719,-2.2 1.153924,1.15392 0.431721,3.28713 -1.112868,3.28713 -0.485081,0 -1.184314,-0.48921 -1.553851,-1.08713 z m 374.000001,0 c -1.03052,-1.66742 1.28721,-3.57951 2.66672,-2.2 1.15392,1.15392 0.43172,3.28713 -1.11287,3.28713 -0.48508,0 -1.18431,-0.48921 -1.55385,-1.08713 z M 42.338607,44.425494 c -0.750822,-1.95661 0.15198,-2.84947 2.118265,-2.09493 1.978164,0.75909 1.980798,2.27299 0.0053,3.03107 -0.885558,0.33982 -1.786278,-0.0572 -2.123539,-0.93614 z m 385.319383,0.88465 C 427.2961,44.948244 427,44.052154 427,43.318814 c 0,-1.4897 2.57786,-1.82538 3.42997,-0.44664 0.68055,1.10115 -1.86765,3.3423 -2.77198,2.43797 z M 37.176676,38.432664 c 0.452271,-2.17211 2.22702,-2.30502 2.632953,-0.19718 0.210801,1.0946 -0.279671,1.75 -1.309629,1.75 -0.960727,0 -1.511966,-0.64684 -1.323324,-1.55282 z m 394.996204,-0.10637 c 0.42145,-2.18841 3.32712,-2.49801 3.32712,-0.35451 0,0.81747 -0.82837,1.64584 -1.84081,1.84082 -1.3364,0.25736 -1.74367,-0.14991 -1.48631,-1.48631 z M 31.446149,33.898354 c -1.030521,-1.66742 1.287209,-3.57951 2.666719,-2.2 1.153924,1.15392 0.431721,3.28713 -1.112868,3.28713 -0.485081,0 -1.184314,-0.48921 -1.553851,-1.08713 z m 406.000001,0 c -1.03052,-1.66742 1.28721,-3.57951 2.66672,-2.2 1.15392,1.15392 0.43172,3.28713 -1.11287,3.28713 -0.48508,0 -1.18431,-0.48921 -1.55385,-1.08713 z M 26.657991,29.310144 C 26.296096,28.948244 26,28.052154 26,27.318814 c 0,-1.4897 2.577864,-1.82538 3.429973,-0.44664 0.680548,1.10115 -1.867651,3.3423 -2.771982,2.43797 z m 416.999999,0 C 443.2961,28.948244 443,28.052154 443,27.318814 c 0,-1.4897 2.57786,-1.82538 3.42997,-0.44664 0.68055,1.10115 -1.86765,3.3423 -2.77198,2.43797 z M 21.176676,22.432664 c 0.452271,-2.17211 2.22702,-2.30502 2.632953,-0.19718 0.210801,1.0946 -0.279671,1.75 -1.309629,1.75 -0.960727,0 -1.511966,-0.64684 -1.323324,-1.55282 z m 426.996204,-0.10637 c 0.19498,-1.01244 1.02335,-1.84081 1.84082,-1.84081 2.1435,0 1.8339,2.90567 -0.35451,3.32712 -1.3364,0.25736 -1.74367,-0.14991 -1.48631,-1.48631 z M 15.446149,17.898354 c -1.030521,-1.66742 1.287209,-3.57951 2.666719,-2.2 1.153924,1.15392 0.431721,3.28713 -1.112868,3.28713 -0.485081,0 -1.184314,-0.48921 -1.553851,-1.08713 z m 438.000001,0 c -1.03052,-1.66742 1.28721,-3.57951 2.66672,-2.2 1.15392,1.15392 0.43172,3.28713 -1.11287,3.28713 -0.48508,0 -1.18431,-0.48921 -1.55385,-1.08713 z M 10.657991,13.310144 C 10.296096,12.948244 10,12.052154 10,11.318814 c 0,-1.4897003 2.577864,-1.8253803 3.429973,-0.44664 0.680548,1.10115 -1.867651,3.3423 -2.771982,2.43797 z m 448.999999,0 C 459.2961,12.948244 459,12.052154 459,11.318814 c 0,-1.4897003 2.57786,-1.8253803 3.42997,-0.44664 0.68055,1.10115 -1.86765,3.3423 -2.77198,2.43797 z"
     id="path831"
     inkscape:connector-curvature="0"
     sodipodi:nodetypes="sccsscssccsccssccscccsscsccsscssccsccssccscccssccscccsscccsccssccsccccccccscccsscccsccssccsscccccccscccsscccsccsscssssccccccscccssccssccssccsscssssscssccssccssccccsscsssssssssscscsccccccccssccsscsssssscsscsccccssccssccssccssccscsssscscssccssccssccssccscsssscsccsccssccssccsscccsscsscsccsccsscccccccssccsscsscsccsccsscccccccssccssccsccccsccssccssccssccssccsccccsccssccssccssc" />
</svg>
